<svg xmlns="http://www.w3.org/2000/svg" width="31.97" height="31.975" viewBox="0 0 31.97 31.975"><defs><style>.a{fill:#3e4855;}</style></defs><g transform="translate(-1641.039 -973.799)"><path class="a" d="M-1792.894,279.07a1.339,1.339,0,0,0-1.471-.989h-21.259a.717.717,0,0,1-.278-.008c-.091-.042-.213-.131-.225-.213-.121-.832-.239-1.666-.326-2.5a4.28,4.28,0,0,0-2.827-3.707c-.215-.091-.444-.149-.667-.223h-3.871a1.689,1.689,0,0,0-1,1v.687a1.614,1.614,0,0,0,1.771,1c.893-.038,1.789-.006,2.684,0a1.059,1.059,0,0,1,1.163,1.012c.215,1.574.42,3.148.627,4.723q.325,2.471.646,4.943c.244,1.853.511,3.7.727,5.56a4.3,4.3,0,0,0,4.162,3.741q6.712,0,13.423,0a8.131,8.131,0,0,0,1.148-.062,4.33,4.33,0,0,0,3.355-3.116c.2-.953.381-1.912.574-2.868.555-2.755,1.115-5.509,1.661-8.266A1.66,1.66,0,0,0-1792.894,279.07Zm-2.974,1.976q-.922,4.622-1.846,9.244a1.162,1.162,0,0,1-1.344,1.122q-7.037,0-14.074,0c-.879,0-1.243-.3-1.364-1.16-.228-1.645-.432-3.294-.646-4.941q-.287-2.193-.575-4.385c-.005-.039,0-.079-.008-.142h19.884C-1795.85,280.874-1795.851,280.962-1795.868,281.046Zm-18.288,14.363a4.25,4.25,0,0,0-4.005,4.011,4.25,4.25,0,0,0,4,3.982,4.263,4.263,0,0,0,4.01-3.98A4.26,4.26,0,0,0-1814.156,295.41Zm1.224,4.633c-.167.479-.546.682-1.236.683-.474,0-.945-.068-1.156-.56a1.658,1.658,0,0,1,.092-1.667c.346-.493.91-.443,1.428-.391a.949.949,0,0,1,.87.652A1.92,1.92,0,0,1-1812.932,300.043Zm14.774-4.633a4.249,4.249,0,0,0-4.018,4,4.251,4.251,0,0,0,3.991,3.994,4.259,4.259,0,0,0,4.023-4A4.264,4.264,0,0,0-1798.158,295.41Zm1.21,4.637c-.169.477-.547.679-1.239.679-.474-.005-.945-.07-1.154-.564a1.7,1.7,0,0,1,.1-1.667.764.764,0,0,1,.474-.319,4.83,4.83,0,0,1,1.2,0,.8.8,0,0,1,.627.59A1.922,1.922,0,0,1-1796.948,300.046Z" transform="translate(3465.854 702.371)"/></g></svg>