<svg xmlns="http://www.w3.org/2000/svg" width="71" height="71" viewBox="0 0 71 71"><defs><style>.a{fill:#e9eff2;}.b{fill:#0e3d67;}</style></defs><g transform="translate(-943 -218)"><circle class="a" cx="35.5" cy="35.5" r="35.5" transform="translate(943 218)"/><path class="b" d="M-530.139,3605.748v-11.961l-19.689,4.714c0,.983,0,1.948,0,2.913,0,4.18-.031,8.36.016,12.539a5.59,5.59,0,0,1-2.555,4.9,8.5,8.5,0,0,1-9.866-.4,5.01,5.01,0,0,1,.282-8.206,8.482,8.482,0,0,1,9.745-.057c.063.045.129.088.239.163.011-.134.023-.221.023-.308,0-6.085.051-12.172-.022-18.257a5.586,5.586,0,0,1,4.51-5.792c4.329-.964,8.626-2.068,12.945-3.074a5.264,5.264,0,0,1,6.494,5.153q.024,10.967,0,21.933a5.16,5.16,0,0,1-2.62,4.359,8.426,8.426,0,0,1-9.536-.305,5.119,5.119,0,0,1-2.209-4.533,4.976,4.976,0,0,1,1.771-3.468,7.834,7.834,0,0,1,5.507-1.968,8.11,8.11,0,0,1,4.738,1.5C-530.314,3605.641-530.257,3605.673-530.139,3605.748Zm-19.667-9.431a.47.47,0,0,0,.1,0q9.652-2.313,19.3-4.624c.224-.054.267-.167.265-.372-.008-1.021,0-2.042,0-3.062a3.2,3.2,0,0,0-4.119-3.23q-6.547,1.568-13.093,3.142a3.133,3.133,0,0,0-2.468,3.092c-.011,1.606,0,3.212,0,4.818C-549.824,3596.158-549.812,3596.236-549.806,3596.316Zm-7.182,14.477a6.342,6.342,0,0,0-3.548,1.018,3.014,3.014,0,0,0,0,5.307,5.874,5.874,0,0,0,3.014,1,6.059,6.059,0,0,0,4.351-1.262,2.894,2.894,0,0,0,.206-4.572A5.834,5.834,0,0,0-556.988,3610.793Zm21.72,2.8a6.214,6.214,0,0,0,3.833-1.23,2.952,2.952,0,0,0-.016-4.922,5.776,5.776,0,0,0-3.2-1.172,6.086,6.086,0,0,0-4.27,1.149,2.955,2.955,0,0,0-.01,4.972A6.2,6.2,0,0,0-535.268,3613.59Z" transform="translate(1522.231 -3349.786)"/></g></svg>