<svg xmlns="http://www.w3.org/2000/svg" width="50" height="50.007" viewBox="0 0 50 50.007"><defs><style>.a{fill:#b2b2b2;}</style></defs><path class="a" d="M585.3,2451.431a25,25,0,1,1-25.031-24.992A25.063,25.063,0,0,1,585.3,2451.431Zm-31.731,4.177a11.3,11.3,0,0,1-4.647-8.421,10.981,10.981,0,0,1,3.419-8.932,11.35,11.35,0,0,1,15.809-.108,10.935,10.935,0,0,1,3.54,7.673,11.347,11.347,0,0,1-4.664,9.8,18.04,18.04,0,0,1,6.389,3.4,13.065,13.065,0,0,1,4.031,5.9,21.832,21.832,0,1,0-34.291-.058C544.943,2459.928,548.732,2457.224,553.569,2455.608Zm6.728,17.718A21.672,21.672,0,0,0,574.522,2468a.758.758,0,0,0,.241-.617,16.024,16.024,0,0,0-1-3.035,11.5,11.5,0,0,0-6.371-5.276,19.638,19.638,0,0,0-9.4-1.152,16.44,16.44,0,0,0-7.656,2.649,9.773,9.773,0,0,0-4.5,6.68.732.732,0,0,0,.248.786A21.858,21.858,0,0,0,560.3,2473.326Zm-.017-18.68a8.256,8.256,0,1,0-8.245-8.278A8.236,8.236,0,0,0,560.28,2454.646Z" transform="translate(-535.3 -2426.439)"/></svg>