<svg xmlns="http://www.w3.org/2000/svg" width="71" height="71" viewBox="0 0 71 71"><defs><style>.a{fill:#e9eff2;}.b{fill:#0e3d67;}</style></defs><g transform="translate(-444 -218)"><circle class="a" cx="35.5" cy="35.5" r="35.5" transform="translate(444 218)"/><path class="b" d="M-1272.371,2630.442a2.594,2.594,0,0,0-.409-.509,10.9,10.9,0,0,1-3.958-5.666,19.417,19.417,0,0,1-.945-8.024c.337-3.641,1.85-6.677,5.128-8.582a10.467,10.467,0,0,1,6.274-1.227,9.586,9.586,0,0,1,5.829,2.467,10.9,10.9,0,0,1,3.3,6.121,17.316,17.316,0,0,1,0,5.694,15.6,15.6,0,0,1-1.941,6.016,10.039,10.039,0,0,1-2.8,3.118,2,2,0,0,0-.34.425,2.285,2.285,0,0,0,.484.3,27.331,27.331,0,0,1,11.212,6.309,8.406,8.406,0,0,1,2.5,4.211,3.156,3.156,0,0,1-1.665,3.816,12.666,12.666,0,0,1-4.244,1.332,67.128,67.128,0,0,1-11.337.731c-3.646-.009-7.293-.071-10.936-.226a25.9,25.9,0,0,1-7.292-1.191,9.179,9.179,0,0,1-1.052-.434,3.319,3.319,0,0,1-1.967-4.437,9.089,9.089,0,0,1,2.764-4.156,26.627,26.627,0,0,1,7.923-4.879c1.032-.433,2.123-.727,3.187-1.085C-1272.6,2630.544-1272.533,2630.512-1272.371,2630.442Zm4.07,14.346c3.5-.089,5.936-.129,8.365-.218a36.984,36.984,0,0,0,6.316-.7,9.07,9.07,0,0,0,3-1.06.767.767,0,0,0,.386-.93c-.044-.17-.071-.344-.121-.513a6.947,6.947,0,0,0-2.257-3.24,24.925,24.925,0,0,0-9.82-5.259,2.575,2.575,0,0,1-2.054-2.148,2.507,2.507,0,0,1,1.143-2.544,7.9,7.9,0,0,0,2.475-2.87,16.254,16.254,0,0,0,1.481-9.628,8.041,8.041,0,0,0-2.847-5.256,7.942,7.942,0,0,0-7.412-1.462c-3.343.851-4.984,3.31-5.605,6.53a16.231,16.231,0,0,0,.382,6.889,9.473,9.473,0,0,0,3.746,5.905,2.4,2.4,0,0,1,.945,2.583,2.491,2.491,0,0,1-1.854,1.867c-1.054.341-2.118.672-3.138,1.1a24.544,24.544,0,0,0-6.468,3.842,7.908,7.908,0,0,0-2.555,3.3c-.5,1.405-.333,1.709.99,2.265a15.224,15.224,0,0,0,4.955,1.049C-1274.577,2644.526-1270.9,2644.663-1268.3,2644.788Z" transform="translate(1746.76 -2373.385)"/></g></svg>