<svg xmlns="http://www.w3.org/2000/svg" width="30.982" height="31.022" viewBox="0 0 30.982 31.022"><defs><style>.a{fill:#3e4855;}</style></defs><g transform="translate(2493.38 -4789.453)"><path class="a" d="M-2462.444,4804.989c0,1.863.11,3.734-.022,5.588a10.252,10.252,0,0,1-6.108,8.92,9.686,9.686,0,0,1-4.335.972c-3.359,0-6.718.015-10.077,0a10.59,10.59,0,0,1-10.225-8.792,13.145,13.145,0,0,1-.16-1.987c-.016-3.169-.007-6.339-.007-9.508a10.562,10.562,0,0,1,8.5-10.513,10.18,10.18,0,0,1,2.023-.2q4.937-.03,9.873-.007a10.569,10.569,0,0,1,10.42,8.8,13.115,13.115,0,0,1,.152,2.031c.022,1.564.007,3.128.007,4.692Zm-3.329-.026h0c0-1.714.028-3.429-.006-5.142a7.209,7.209,0,0,0-7.117-7.016c-3.319-.018-6.637-.008-9.956,0a6.608,6.608,0,0,0-2.881.638,7.081,7.081,0,0,0-4.291,6.707c-.043,3.2-.008,6.394-.01,9.591a7.225,7.225,0,0,0,7.305,7.328c3.21.008,6.42,0,9.63,0a7.5,7.5,0,0,0,.978-.036,7.22,7.22,0,0,0,6.348-7.211C-2465.767,4808.2-2465.773,4806.582-2465.773,4804.963Z"/><path class="a" d="M-2349.527,4898.811l-4.81-4.8,2.4-2.4c.058.055.159.143.252.237q2.795,2.832,5.587,5.666a1.634,1.634,0,0,1,0,2.6q-2.822,2.833-5.654,5.657c-.067.066-.137.129-.17.159l-2.369-2.361Z" transform="translate(-127.676 -93.812)"/></g></svg>