<svg xmlns="http://www.w3.org/2000/svg" width="35" height="35.005" viewBox="0 0 35 35.005"><defs><style>.a{fill:#3e4855;}</style></defs><path class="a" d="M570.3,2443.933a17.5,17.5,0,1,1-17.522-17.494A17.545,17.545,0,0,1,570.3,2443.933Zm-22.212,2.924a7.91,7.91,0,0,1-3.253-5.895,7.687,7.687,0,0,1,2.393-6.252,7.946,7.946,0,0,1,11.066-.076,7.655,7.655,0,0,1,2.478,5.371,7.943,7.943,0,0,1-3.265,6.862,12.626,12.626,0,0,1,4.472,2.383,9.144,9.144,0,0,1,2.822,4.132,15.283,15.283,0,1,0-24-.041C542.05,2449.881,544.7,2447.988,548.088,2446.856Zm4.71,12.4a15.17,15.17,0,0,0,9.958-3.73.531.531,0,0,0,.169-.432,11.225,11.225,0,0,0-.7-2.125,8.05,8.05,0,0,0-4.46-3.693,13.749,13.749,0,0,0-6.58-.806,11.509,11.509,0,0,0-5.359,1.854,6.842,6.842,0,0,0-3.147,4.676.512.512,0,0,0,.173.55A15.3,15.3,0,0,0,552.8,2459.259Zm-.012-13.076a5.779,5.779,0,1,0-5.772-5.794A5.765,5.765,0,0,0,552.786,2446.184Z" transform="translate(-535.3 -2426.438)"/></svg>