<svg xmlns="http://www.w3.org/2000/svg" width="6.1" height="21.353" viewBox="0 0 6.1 21.353"><defs><style>.a{fill:#b2b2b2;}</style></defs><path class="a" d="M873.3,5888.025a3.034,3.034,0,0,0,.87-5.709,7.972,7.972,0,0,0-1.077-.348h-.572a1.421,1.421,0,0,1-.181.049,3.042,3.042,0,1,0,.961,6.008Zm-2.05-3.026a1.53,1.53,0,0,1,1.562-1.5,1.523,1.523,0,1,1-.08,3.044A1.524,1.524,0,0,1,871.248,5885Zm1.539,12.227a3.047,3.047,0,0,0,.008,6.094,3.047,3.047,0,1,0-.008-6.094Zm-.005,4.567a1.523,1.523,0,1,1,0-3.045,1.523,1.523,0,1,1,0,3.045Zm.021-12.189a3.047,3.047,0,1,0,3.047,3.077A3.048,3.048,0,0,0,872.8,5889.6Zm-.013,4.573a1.523,1.523,0,1,1,1.52-1.5A1.5,1.5,0,0,1,872.789,5894.176Z" transform="translate(-869.749 -5881.968)"/></svg>