<svg xmlns="http://www.w3.org/2000/svg" width="24.74" height="25.58" viewBox="0 0 24.74 25.58"><defs><style>.a{fill:#83c4ff;}</style></defs><path class="a" d="M-540.95,3598.466V3590.3l-13.445,3.219c0,.672,0,1.33,0,1.989,0,2.854-.021,5.709.011,8.563a3.817,3.817,0,0,1-1.745,3.349,5.8,5.8,0,0,1-6.737-.271,3.421,3.421,0,0,1,.192-5.6,5.791,5.791,0,0,1,6.655-.039c.043.031.088.06.163.111.007-.091.016-.151.016-.21,0-4.156.035-8.312-.015-12.467a3.815,3.815,0,0,1,3.08-3.955c2.956-.658,5.89-1.413,8.84-2.1a3.6,3.6,0,0,1,4.435,3.519q.017,7.489,0,14.977a3.523,3.523,0,0,1-1.789,2.977,5.754,5.754,0,0,1-6.512-.208,3.5,3.5,0,0,1-1.508-3.1,3.4,3.4,0,0,1,1.21-2.368,5.348,5.348,0,0,1,3.76-1.344,5.537,5.537,0,0,1,3.235,1.026C-541.07,3598.393-541.031,3598.416-540.95,3598.466Zm-13.43-6.44a.337.337,0,0,0,.066,0q6.591-1.579,13.183-3.157c.153-.037.182-.114.181-.254-.005-.7,0-1.394,0-2.091a2.185,2.185,0,0,0-2.813-2.206q-4.471,1.071-8.941,2.145a2.139,2.139,0,0,0-1.686,2.112c-.007,1.1,0,2.193,0,3.29C-554.393,3591.918-554.385,3591.971-554.38,3592.026Zm-4.9,9.886a4.332,4.332,0,0,0-2.423.695,2.059,2.059,0,0,0,0,3.624,4.012,4.012,0,0,0,2.058.683,4.136,4.136,0,0,0,2.971-.862,1.976,1.976,0,0,0,.14-3.122A3.984,3.984,0,0,0-559.285,3601.912Zm14.832,1.91a4.244,4.244,0,0,0,2.617-.84,2.016,2.016,0,0,0-.011-3.361,3.946,3.946,0,0,0-2.188-.8,4.157,4.157,0,0,0-2.916.785,2.018,2.018,0,0,0-.007,3.4A4.237,4.237,0,0,0-544.453,3603.822Z" transform="translate(564.231 -3582.786)"/></svg>