<svg xmlns="http://www.w3.org/2000/svg" width="25.878" height="27.047" viewBox="0 0 25.878 27.047"><defs><style>.a{fill:#83c4ff;}</style></defs><path class="a" d="M-1277.171,2622.416a1.731,1.731,0,0,0-.273-.339,7.261,7.261,0,0,1-2.638-3.775,12.94,12.94,0,0,1-.63-5.347,6.927,6.927,0,0,1,3.417-5.719,6.975,6.975,0,0,1,4.18-.818,6.387,6.387,0,0,1,3.885,1.644,7.261,7.261,0,0,1,2.2,4.079,11.536,11.536,0,0,1,0,3.794,10.392,10.392,0,0,1-1.293,4.009,6.688,6.688,0,0,1-1.866,2.077,1.333,1.333,0,0,0-.226.283,1.525,1.525,0,0,0,.323.2,18.212,18.212,0,0,1,7.471,4.2,5.6,5.6,0,0,1,1.664,2.806,2.1,2.1,0,0,1-1.109,2.543,8.442,8.442,0,0,1-2.828.887,44.735,44.735,0,0,1-7.554.487c-2.429-.006-4.86-.047-7.287-.151a17.258,17.258,0,0,1-4.859-.794,6.13,6.13,0,0,1-.7-.289,2.212,2.212,0,0,1-1.31-2.957,6.057,6.057,0,0,1,1.842-2.769,17.74,17.74,0,0,1,5.279-3.251c.688-.289,1.415-.484,2.124-.723C-1277.322,2622.484-1277.279,2622.462-1277.171,2622.416Zm2.712,9.56c2.335-.059,3.955-.086,5.574-.145a24.633,24.633,0,0,0,4.209-.468,6.04,6.04,0,0,0,2-.706.511.511,0,0,0,.258-.62c-.03-.113-.047-.229-.08-.342a4.629,4.629,0,0,0-1.5-2.159,16.608,16.608,0,0,0-6.543-3.5,1.716,1.716,0,0,1-1.369-1.431,1.671,1.671,0,0,1,.762-1.7,5.263,5.263,0,0,0,1.65-1.912,10.832,10.832,0,0,0,.987-6.416,5.359,5.359,0,0,0-1.9-3.5,5.292,5.292,0,0,0-4.939-.975,5.011,5.011,0,0,0-3.735,4.352,10.815,10.815,0,0,0,.255,4.591,6.311,6.311,0,0,0,2.5,3.935,1.6,1.6,0,0,1,.63,1.721,1.66,1.66,0,0,1-1.235,1.244c-.7.227-1.411.448-2.091.733a16.355,16.355,0,0,0-4.31,2.56,5.27,5.27,0,0,0-1.7,2.2c-.332.936-.222,1.139.66,1.509a10.146,10.146,0,0,0,3.3.7C-1278.641,2631.8-1276.194,2631.892-1274.459,2631.975Z" transform="translate(1286.76 -2606.385)"/></svg>