<svg xmlns="http://www.w3.org/2000/svg" width="34.504" height="28.719" viewBox="0 0 34.504 28.719"><defs><style>.a{fill:#fff;}</style></defs><g transform="translate(771.088 -3032.344)"><path class="a" d="M-681.319,3229.907h4.859v-.4q0-5.744,0-11.488a.955.955,0,0,1,.878-1.022,1.01,1.01,0,0,1,1.043.83,1.671,1.671,0,0,1,.014.3q0,4.79,0,9.579c0,1.01,0,2.021,0,3.031a.991.991,0,0,1-1.1,1.121q-3.255.012-6.51,0a1,1,0,0,1-1.122-1.138c0-1.958,0-3.916,0-5.875a3.05,3.05,0,0,0-2.835-3.174,3.037,3.037,0,0,0-3.312,2.826c-.042,1.907-.016,3.816-.019,5.725,0,.175,0,.349,0,.524a1,1,0,0,1-1.112,1.112c-.873.01-1.746,0-2.619,0-1.247,0-2.494,0-3.741,0-.872,0-1.208-.333-1.208-1.19q0-6.249,0-12.5c0-.883.615-1.4,1.319-1.1a1.014,1.014,0,0,1,.619,1.052c0,1.933,0,3.866,0,5.8q0,2.75,0,5.5c0,.148,0,.3,0,.472h4.789c.007-.115.019-.223.019-.331,0-1.684-.009-3.368.015-5.051a5.063,5.063,0,0,1,4.565-4.77,5.035,5.035,0,0,1,5.423,4.409,25.522,25.522,0,0,1,.039,2.878C-681.316,3227.976-681.319,3228.922-681.319,3229.907Z" transform="translate(-67.511 -170.8)"/><path class="a" d="M-753.819,3034.579q-1.788,1.424-3.57,2.843-5.951,4.745-11.9,9.486a1.627,1.627,0,0,1-.622.316.945.945,0,0,1-1.085-.531.953.953,0,0,1,.35-1.188q3.079-2.467,6.165-4.926,4.926-3.931,9.853-7.86a1.036,1.036,0,0,1,1.591-.005q7.5,5.98,15,11.963l.995.792a.991.991,0,0,1,.253,1.441.958.958,0,0,1-1.45.074q-3.555-2.83-7.105-5.666l-8.245-6.576C-753.663,3034.687-753.736,3034.64-753.819,3034.579Z" transform="translate(0 0)"/></g></svg>